<svg width="606" height="96" viewBox="0 0 606 96" fill="none" xmlns="http://www.w3.org/2000/svg">
<path d="M128.302 23.501C45.0913 28.353 48.2023 28.024 45.4323 28.926C45.3793 28.944 45.3253 28.959 45.2733 28.978C41.7623 30.17 39.6353 32.479 38.4913 34.149C48.4403 34.028 87.0013 33.571 125.121 33.2C126.115 29.391 127.108 26.211 128.302 23.501Z" fill="black"/>
<path d="M45.0663 69.215C43.8993 69.215 42.9503 70.164 42.9503 71.33C42.9503 72.497 43.8993 73.446 45.0663 73.446C46.2333 73.446 47.1823 72.497 47.1823 71.33C47.1823 70.164 46.2333 69.215 45.0663 69.215Z" fill="black"/>
<path d="M6.72038 72.148C6.72038 71.415 6.12337 70.819 5.39137 70.819C4.38837 70.819 3.45037 70.819 1.31738 70.819C-0.438625 70.819 -0.439625 73.477 1.31738 73.477C2.75338 73.477 3.78837 73.477 5.39137 73.477C6.12337 73.477 6.72038 72.881 6.72038 72.148Z" fill="black"/>
<path d="M45.0653 55.287C36.2193 55.287 29.0223 62.484 29.0223 71.331C29.0223 80.178 36.2193 87.375 45.0653 87.375C53.9133 87.375 61.1103 80.178 61.1103 71.331C61.1103 62.484 53.9123 55.287 45.0653 55.287ZM45.0663 76.295C42.3293 76.295 40.1013 74.067 40.1013 71.33C40.1013 68.594 42.3293 66.365 45.0663 66.365C47.8043 66.365 50.0313 68.593 50.0313 71.33C50.0303 74.067 47.8043 76.295 45.0663 76.295Z" fill="black"/>
<path d="M205.322 29.311H156.838C156.143 29.962 154.906 31.207 153.551 32.941C176.23 32.752 195.812 32.641 205.062 32.711C205.16 31.437 205.248 30.287 205.322 29.311Z" fill="black"/>
<path d="M324.23 64.175C322.997 60.025 320.773 58.605 318.335 56.063C309.792 47.154 290.088 42.075 271.744 39.3C289.101 44.098 308.595 52.633 324.23 64.175Z" fill="black"/>
<path d="M149.979 32.971C151.799 30.327 168.801 12.191 168.801 12.191C171.586 9.21799 174.436 8.063 178.946 8.063C182.331 8.063 206.556 8.063 209.931 8.063C209.958 8.061 210.007 8.059 210.055 8.058C209.388 14.859 207.372 35.211 207.693 32.941C208.695 32.706 242.704 32.452 268.374 35.905C287.435 38.469 302.296 42.771 312.731 48.727C278.353 6.85201 228.552 0 199.727 0C192.336 0 182.605 0.829993 178.012 1.30499C172.799 1.84199 168.012 4.383 164.311 8.092L150.405 22.039C150.157 22.287 149.828 22.435 149.477 22.454C149.192 22.472 143.893 22.592 131.539 23.311C130.208 25.958 129.14 29.182 128.074 33.171C135.492 33.1 142.865 33.032 149.979 32.971ZM242.375 27.33C242.561 27.769 242.516 28.273 242.252 28.672C241.987 29.07 241.543 29.311 241.064 29.311H212.237L214.075 8.213C216.395 8.43 219.482 8.91499 222.832 9.98399C231.677 12.811 238.686 18.633 242.375 27.33Z" fill="black"/>
<path d="M295.952 75.375C293.199 75.375 290.96 73.136 290.96 70.383C290.96 67.63 293.199 65.391 295.952 65.391H321.055C301.686 51.509 275.958 41.48 257.079 39.213C234.051 36.45 212.35 43.287 209.434 63.895C207.876 74.916 214.058 78.458 217.136 79.525V74.84C217.136 57.844 231.029 44.299 247.596 44.299C264.672 44.299 278.217 58.124 278.217 74.84V79.723L331.806 79.532C331.318 78.473 330.811 76.452 330.286 75.376H295.952V75.375Z" fill="black"/>
<path d="M246.315 47.184C233.575 47.852 223.417 58.427 223.417 71.331C223.417 84.665 234.265 95.512 247.598 95.512C260.932 95.512 271.781 84.665 271.781 71.331C271.78 57.828 260.532 46.491 246.315 47.184ZM247.597 90.224C237.181 90.224 228.706 81.749 228.706 71.331C228.706 60.913 237.181 52.438 247.597 52.438C258.016 52.438 266.491 60.913 266.491 71.331C266.491 81.749 258.016 90.224 247.597 90.224Z" fill="black"/>
<path d="M333.176 68.24C328.362 68.24 300.224 68.24 295.952 68.24C294.771 68.24 293.809 69.201 293.809 70.383C293.809 71.565 294.772 72.526 295.952 72.526C303.039 72.526 326.049 72.526 333.176 72.526C334.359 72.526 335.321 71.565 335.321 70.383C335.32 69.201 334.359 68.24 333.176 68.24Z" fill="black"/>
<path d="M247.597 55.287C238.752 55.287 231.555 62.484 231.555 71.331C231.555 80.178 238.752 87.375 247.597 87.375C256.445 87.375 263.643 80.178 263.643 71.331C263.643 62.484 256.444 55.287 247.597 55.287ZM247.599 76.295C244.862 76.295 242.633 74.067 242.633 71.33C242.633 68.594 244.861 66.365 247.599 66.365C250.335 66.365 252.564 68.593 252.564 71.33C252.564 74.067 250.335 76.295 247.599 76.295Z" fill="black"/>
<path d="M247.599 69.215C246.432 69.215 245.483 70.164 245.483 71.33C245.483 72.497 246.432 73.446 247.599 73.446C248.765 73.446 249.715 72.497 249.715 71.33C249.715 70.164 248.765 69.215 247.599 69.215Z" fill="black"/>
<path d="M206.613 63.496C208.754 48.357 220.595 38.539 238.852 36.266C229.491 35.84 221.138 35.753 214.921 35.689C208.31 35.619 209.054 35.609 207.694 35.59C206.841 44.059 205.065 56.28 204.111 63.942C202.61 75.973 191.709 76.065 186.729 76.294C180.737 76.577 181.311 76.889 168.125 76.401C155.175 75.922 149.163 74.709 145.465 68.42C142.323 63.082 142.274 54.518 145.314 42.961C146.015 40.298 147.05 37.916 148.201 35.838C141.405 35.897 134.39 35.961 127.341 36.029C125.424 43.758 123.192 54.357 112.578 54C110.24 53.926 104.935 53.032 96.7644 51.341C108.545 57.977 123.482 68.32 129.86 80.254L212.111 79.96C208.675 77.371 205.34 72.504 206.613 63.496Z" fill="black"/>
<path d="M44.5914 47.41C41.8244 47.41 39.1644 47.851 36.6744 48.652C27.4644 52.07 20.8834 60.946 20.8834 71.331C20.8834 84.665 31.7314 95.512 45.0654 95.512C58.4004 95.512 69.2484 84.665 69.2484 71.331C69.2484 65.57 67.2214 60.275 63.8454 56.117C59.2384 50.799 52.3184 47.41 44.5914 47.41ZM45.0654 90.224C34.6484 90.224 26.1724 81.749 26.1724 71.331C26.1724 60.913 34.6484 52.438 45.0654 52.438C55.4844 52.438 63.9604 60.913 63.9604 71.331C63.9604 81.749 55.4844 90.224 45.0654 90.224Z" fill="black"/>
<path d="M62.0283 39.686C54.6533 37.723 45.5933 36.475 38.0383 37.212C25.2983 38.469 11.4863 48.954 6.01132 68.015C8.01532 68.309 9.57034 70.07 9.57034 72.148C9.57034 74.452 7.69733 76.326 5.39233 76.326H4.25333C3.99533 78.18 3.87534 79.69 3.81934 80.706H3.84332L16.6543 80.661V71.614C16.6543 59.705 24.6473 49.575 35.7083 45.972C38.6263 44.891 41.7783 44.299 45.0653 44.299C53.5223 44.299 61.0813 48.205 66.0423 54.305C70.0883 58.998 72.5283 65.034 72.5283 71.614V80.46L126.6 80.267C115.36 61.446 80.3183 44.553 62.0283 39.686Z" fill="black"/>
<path d="M148.069 43.686C144.533 57.132 146.036 63.772 147.92 66.975C150.705 71.709 154.883 73.062 168.232 73.555C179.603 73.975 179.004 73.83 187.074 73.448C193.866 73.135 200.274 71.375 201.512 63.292C203.211 52.212 204.181 44.022 204.84 35.56C195.263 35.492 174.912 35.613 151.54 35.811C150.163 38.01 148.867 40.658 148.069 43.686ZM189.832 40.873C191.262 40.873 192.473 41.793 192.917 43.07H197.484C198.076 43.07 198.554 43.55 198.554 44.142C198.554 44.733 198.076 45.213 197.484 45.213H192.917C192.473 46.49 191.261 47.409 189.832 47.409C188.025 47.409 186.563 45.945 186.563 44.141C186.564 42.337 188.025 40.873 189.832 40.873Z" fill="black"/>
<path d="M112.67 51.154C120.511 51.4 122.524 43.723 124.4 36.056C101.608 36.281 78.7234 36.532 61.9594 36.722C70.1714 38.804 79.6284 42.66 87.3264 46.396C100.94 49.414 109.7 51.059 112.67 51.154ZM119.981 38.93L115.036 48.131C114.507 48.254 113.977 48.287 113.454 48.287C113.354 48.287 113.251 48.285 113.15 48.282C112.837 48.271 112.376 48.237 111.708 48.159L116.649 38.964C117.758 38.952 118.869 38.941 119.981 38.93ZM113.067 39L108.409 47.673C107.544 47.527 106.545 47.353 105.382 47.138L109.736 39.034C110.843 39.023 111.953 39.012 113.067 39ZM106.155 39.07L102.154 46.516C101.232 46.334 100.236 46.133 99.1644 45.913L102.822 39.104C103.928 39.094 105.039 39.082 106.155 39.07ZM95.9084 39.178C97.0124 39.167 98.1214 39.156 99.2424 39.144L95.9614 45.247C95.0214 45.049 94.0304 44.836 92.9884 44.611L95.9084 39.178ZM84.1824 41.582C83.2874 41.18 82.3934 40.785 81.5014 40.404L82.0784 39.328C83.1764 39.316 84.2874 39.303 85.4124 39.291L84.1824 41.582ZM88.9944 39.253C90.0944 39.242 91.2074 39.229 92.3264 39.217L89.8024 43.916C89.4244 43.833 89.0473 43.75 88.6573 43.664C88.1193 43.404 87.5774 43.15 87.0364 42.896L88.9944 39.253Z" fill="black"/>
<path d="M176.088 26.793C176.058 26.641 176.012 26.488 175.945 26.342L171.759 17.322C171.281 16.295 170.06 15.849 169.036 16.326C168.007 16.803 167.56 18.021 168.037 19.049L171.631 26.793H176.088Z" fill="black"/>
<path d="M336.624 30.2H346.672L351.152 62.264H351.28L355.76 30.2H365.808V75H359.152V41.08H359.024L353.904 75H348.016L342.896 41.08H342.768V75H336.624V30.2ZM371.062 30.2H378.102V75H371.062V30.2ZM383.374 30.2H390.414V68.6H401.998V75H383.374V30.2ZM405.374 30.2H412.414V68.6H423.998V75H405.374V30.2ZM437.044 75.64C433.673 75.64 431.092 74.68 429.3 72.76C427.551 70.84 426.676 68.1307 426.676 64.632V40.568C426.676 37.0693 427.551 34.36 429.3 32.44C431.092 30.52 433.673 29.56 437.044 29.56C440.415 29.56 442.975 30.52 444.724 32.44C446.516 34.36 447.412 37.0693 447.412 40.568V45.304H440.756V40.12C440.756 37.3467 439.583 35.96 437.236 35.96C434.889 35.96 433.716 37.3467 433.716 40.12V65.144C433.716 67.8747 434.889 69.24 437.236 69.24C439.583 69.24 440.756 67.8747 440.756 65.144V58.296H447.412V64.632C447.412 68.1307 446.516 70.84 444.724 72.76C442.975 74.68 440.415 75.64 437.044 75.64ZM467.314 30.2H476.85L484.146 75H477.106L475.826 66.104V66.232H467.826L466.546 75H460.018L467.314 30.2ZM474.994 60.152L471.858 38.008H471.73L468.658 60.152H474.994ZM497.677 75.64C494.263 75.64 491.661 74.68 489.869 72.76C488.077 70.7973 487.181 68.0027 487.181 64.376V30.2H494.22V64.888C494.22 66.424 494.519 67.5333 495.117 68.216C495.757 68.8987 496.653 69.24 497.805 69.24C498.957 69.24 499.831 68.8987 500.429 68.216C501.069 67.5333 501.389 66.424 501.389 64.888V30.2H508.173V64.376C508.173 68.0027 507.277 70.7973 505.485 72.76C503.693 74.68 501.09 75.64 497.677 75.64ZM518.691 36.6H511.331V30.2H533.091V36.6H525.731V75H518.691V36.6ZM546.425 75.64C542.969 75.64 540.324 74.6587 538.489 72.696C536.654 70.7333 535.737 67.96 535.737 64.376V40.824C535.737 37.24 536.654 34.4667 538.489 32.504C540.324 30.5413 542.969 29.56 546.425 29.56C549.881 29.56 552.526 30.5413 554.361 32.504C556.196 34.4667 557.113 37.24 557.113 40.824V64.376C557.113 67.96 556.196 70.7333 554.361 72.696C552.526 74.6587 549.881 75.64 546.425 75.64ZM546.425 69.24C548.857 69.24 550.073 67.768 550.073 64.824V40.376C550.073 37.432 548.857 35.96 546.425 35.96C543.993 35.96 542.777 37.432 542.777 40.376V64.824C542.777 67.768 543.993 69.24 546.425 69.24ZM571.026 75.64C567.613 75.64 565.031 74.68 563.282 72.76C561.533 70.7973 560.658 68.0027 560.658 64.376V61.816H567.314V64.888C567.314 67.7893 568.53 69.24 570.962 69.24C572.157 69.24 573.053 68.8987 573.65 68.216C574.29 67.4907 574.61 66.3387 574.61 64.76C574.61 62.8827 574.183 61.24 573.33 59.832C572.477 58.3813 570.898 56.6533 568.594 54.648C565.693 52.088 563.666 49.784 562.514 47.736C561.362 45.6453 560.786 43.2987 560.786 40.696C560.786 37.1547 561.682 34.424 563.474 32.504C565.266 30.5413 567.869 29.56 571.282 29.56C574.653 29.56 577.191 30.5413 578.898 32.504C580.647 34.424 581.522 37.1973 581.522 40.824V42.68H574.866V40.376C574.866 38.84 574.567 37.7307 573.97 37.048C573.373 36.3227 572.498 35.96 571.346 35.96C568.999 35.96 567.826 37.3893 567.826 40.248C567.826 41.8693 568.253 43.384 569.106 44.792C570.002 46.2 571.602 47.9067 573.906 49.912C576.85 52.472 578.877 54.7973 579.986 56.888C581.095 58.9787 581.65 61.432 581.65 64.248C581.65 67.9173 580.733 70.7333 578.898 72.696C577.106 74.6587 574.482 75.64 571.026 75.64Z" fill="black"/>
<path d="M313 78H582" stroke="black" stroke-width="3"/>
</svg>
