<svg width="336" height="96" viewBox="0 0 336 96" fill="none" xmlns="http://www.w3.org/2000/svg">
<path d="M128.302 23.501C45.0913 28.353 48.2023 28.024 45.4323 28.926C45.3793 28.944 45.3253 28.959 45.2733 28.978C41.7623 30.17 39.6353 32.479 38.4913 34.149C48.4403 34.028 87.0013 33.571 125.121 33.2C126.115 29.391 127.108 26.211 128.302 23.501Z" fill="black"/>
<path d="M45.0663 69.215C43.8993 69.215 42.9503 70.164 42.9503 71.33C42.9503 72.497 43.8993 73.446 45.0663 73.446C46.2333 73.446 47.1823 72.497 47.1823 71.33C47.1823 70.164 46.2333 69.215 45.0663 69.215Z" fill="black"/>
<path d="M6.72038 72.148C6.72038 71.415 6.12336 70.819 5.39137 70.819C4.38836 70.819 3.45038 70.819 1.31738 70.819C-0.438625 70.819 -0.439625 73.477 1.31738 73.477C2.75338 73.477 3.78836 73.477 5.39137 73.477C6.12336 73.477 6.72038 72.881 6.72038 72.148Z" fill="black"/>
<path d="M45.0653 55.287C36.2193 55.287 29.0223 62.484 29.0223 71.331C29.0223 80.178 36.2193 87.375 45.0653 87.375C53.9133 87.375 61.1103 80.178 61.1103 71.331C61.1103 62.484 53.9123 55.287 45.0653 55.287ZM45.0663 76.295C42.3293 76.295 40.1013 74.067 40.1013 71.33C40.1013 68.594 42.3293 66.365 45.0663 66.365C47.8043 66.365 50.0313 68.593 50.0313 71.33C50.0303 74.067 47.8043 76.295 45.0663 76.295Z" fill="black"/>
<path d="M205.322 29.311H156.838C156.143 29.962 154.906 31.207 153.551 32.941C176.23 32.752 195.812 32.641 205.062 32.711C205.16 31.437 205.248 30.287 205.322 29.311Z" fill="black"/>
<path d="M324.23 64.175C322.997 60.025 320.773 58.605 318.335 56.063C309.792 47.154 290.088 42.075 271.744 39.3C289.101 44.098 308.595 52.633 324.23 64.175Z" fill="black"/>
<path d="M149.979 32.971C151.799 30.327 168.801 12.191 168.801 12.191C171.586 9.21799 174.436 8.063 178.946 8.063C182.331 8.063 206.556 8.063 209.931 8.063C209.958 8.061 210.007 8.059 210.055 8.058C209.388 14.859 207.372 35.211 207.693 32.941C208.695 32.706 242.704 32.452 268.374 35.905C287.435 38.469 302.296 42.771 312.731 48.727C278.353 6.85201 228.552 0 199.727 0C192.336 0 182.605 0.829993 178.012 1.30499C172.799 1.84199 168.012 4.383 164.311 8.092L150.405 22.039C150.157 22.287 149.828 22.435 149.477 22.454C149.192 22.472 143.893 22.592 131.539 23.311C130.208 25.958 129.14 29.182 128.074 33.171C135.492 33.1 142.865 33.032 149.979 32.971ZM242.375 27.33C242.561 27.769 242.516 28.273 242.252 28.672C241.987 29.07 241.543 29.311 241.064 29.311H212.237L214.075 8.213C216.395 8.43 219.482 8.91499 222.832 9.98399C231.677 12.811 238.686 18.633 242.375 27.33Z" fill="black"/>
<path d="M295.952 75.375C293.199 75.375 290.96 73.136 290.96 70.383C290.96 67.63 293.199 65.391 295.952 65.391H321.055C301.686 51.509 275.958 41.48 257.079 39.213C234.051 36.45 212.35 43.287 209.434 63.895C207.876 74.916 214.058 78.458 217.136 79.525V74.84C217.136 57.844 231.029 44.299 247.596 44.299C264.672 44.299 278.217 58.124 278.217 74.84V79.723L331.806 79.532C331.318 78.473 330.811 76.452 330.286 75.376H295.952V75.375Z" fill="black"/>
<path d="M246.315 47.184C233.575 47.852 223.417 58.427 223.417 71.331C223.417 84.665 234.265 95.512 247.598 95.512C260.932 95.512 271.781 84.665 271.781 71.331C271.78 57.828 260.532 46.491 246.315 47.184ZM247.597 90.224C237.181 90.224 228.706 81.749 228.706 71.331C228.706 60.913 237.181 52.438 247.597 52.438C258.016 52.438 266.491 60.913 266.491 71.331C266.491 81.749 258.016 90.224 247.597 90.224Z" fill="black"/>
<path d="M333.176 68.24C328.362 68.24 300.224 68.24 295.952 68.24C294.771 68.24 293.809 69.201 293.809 70.383C293.809 71.565 294.772 72.526 295.952 72.526C303.039 72.526 326.049 72.526 333.176 72.526C334.359 72.526 335.321 71.565 335.321 70.383C335.32 69.201 334.359 68.24 333.176 68.24Z" fill="black"/>
<path d="M247.597 55.287C238.752 55.287 231.555 62.484 231.555 71.331C231.555 80.178 238.752 87.375 247.597 87.375C256.445 87.375 263.643 80.178 263.643 71.331C263.643 62.484 256.444 55.287 247.597 55.287ZM247.599 76.295C244.862 76.295 242.633 74.067 242.633 71.33C242.633 68.594 244.861 66.365 247.599 66.365C250.335 66.365 252.564 68.593 252.564 71.33C252.564 74.067 250.335 76.295 247.599 76.295Z" fill="black"/>
<path d="M247.599 69.215C246.432 69.215 245.483 70.164 245.483 71.33C245.483 72.497 246.432 73.446 247.599 73.446C248.765 73.446 249.715 72.497 249.715 71.33C249.715 70.164 248.765 69.215 247.599 69.215Z" fill="black"/>
<path d="M206.613 63.496C208.754 48.357 220.595 38.539 238.852 36.266C229.491 35.84 221.138 35.753 214.921 35.689C208.31 35.619 209.054 35.609 207.694 35.59C206.841 44.059 205.065 56.28 204.111 63.942C202.61 75.973 191.709 76.065 186.729 76.294C180.737 76.577 181.311 76.889 168.125 76.401C155.175 75.922 149.163 74.709 145.465 68.42C142.323 63.082 142.274 54.518 145.314 42.961C146.015 40.298 147.05 37.916 148.201 35.838C141.405 35.897 134.39 35.961 127.341 36.029C125.424 43.758 123.192 54.357 112.578 54C110.24 53.926 104.935 53.032 96.7644 51.341C108.545 57.977 123.482 68.32 129.86 80.254L212.111 79.96C208.675 77.371 205.34 72.504 206.613 63.496Z" fill="black"/>
<path d="M44.5914 47.41C41.8244 47.41 39.1644 47.851 36.6744 48.652C27.4644 52.07 20.8834 60.946 20.8834 71.331C20.8834 84.665 31.7314 95.512 45.0654 95.512C58.4004 95.512 69.2484 84.665 69.2484 71.331C69.2484 65.57 67.2214 60.275 63.8454 56.117C59.2384 50.799 52.3184 47.41 44.5914 47.41ZM45.0654 90.224C34.6484 90.224 26.1724 81.749 26.1724 71.331C26.1724 60.913 34.6484 52.438 45.0654 52.438C55.4844 52.438 63.9604 60.913 63.9604 71.331C63.9604 81.749 55.4844 90.224 45.0654 90.224Z" fill="black"/>
<path d="M62.0283 39.686C54.6533 37.723 45.5933 36.475 38.0383 37.212C25.2983 38.469 11.4863 48.954 6.01132 68.015C8.01532 68.309 9.57034 70.07 9.57034 72.148C9.57034 74.452 7.69733 76.326 5.39233 76.326H4.25333C3.99533 78.18 3.87534 79.69 3.81934 80.706H3.84332L16.6543 80.661V71.614C16.6543 59.705 24.6473 49.575 35.7083 45.972C38.6263 44.891 41.7783 44.299 45.0653 44.299C53.5223 44.299 61.0813 48.205 66.0423 54.305C70.0883 58.998 72.5283 65.034 72.5283 71.614V80.46L126.6 80.267C115.36 61.446 80.3183 44.553 62.0283 39.686Z" fill="black"/>
<path d="M148.069 43.686C144.533 57.132 146.036 63.772 147.92 66.975C150.705 71.709 154.883 73.062 168.232 73.555C179.603 73.975 179.004 73.83 187.074 73.448C193.866 73.135 200.274 71.375 201.512 63.292C203.211 52.212 204.181 44.022 204.84 35.56C195.263 35.492 174.912 35.613 151.54 35.811C150.163 38.01 148.867 40.658 148.069 43.686ZM189.832 40.873C191.262 40.873 192.473 41.793 192.917 43.07H197.484C198.076 43.07 198.554 43.55 198.554 44.142C198.554 44.733 198.076 45.213 197.484 45.213H192.917C192.473 46.49 191.261 47.409 189.832 47.409C188.025 47.409 186.563 45.945 186.563 44.141C186.564 42.337 188.025 40.873 189.832 40.873Z" fill="black"/>
<path d="M112.67 51.154C120.511 51.4 122.524 43.723 124.4 36.056C101.608 36.281 78.7234 36.532 61.9594 36.722C70.1714 38.804 79.6284 42.66 87.3264 46.396C100.94 49.414 109.7 51.059 112.67 51.154ZM119.981 38.93L115.036 48.131C114.507 48.254 113.977 48.287 113.454 48.287C113.354 48.287 113.251 48.285 113.15 48.282C112.837 48.271 112.376 48.237 111.708 48.159L116.649 38.964C117.758 38.952 118.869 38.941 119.981 38.93ZM113.067 39L108.409 47.673C107.544 47.527 106.545 47.353 105.382 47.138L109.736 39.034C110.843 39.023 111.953 39.012 113.067 39ZM106.155 39.07L102.154 46.516C101.232 46.334 100.236 46.133 99.1644 45.913L102.822 39.104C103.928 39.094 105.039 39.082 106.155 39.07ZM95.9084 39.178C97.0124 39.167 98.1214 39.156 99.2424 39.144L95.9614 45.247C95.0214 45.049 94.0304 44.836 92.9884 44.611L95.9084 39.178ZM84.1824 41.582C83.2874 41.18 82.3934 40.785 81.5014 40.404L82.0784 39.328C83.1764 39.316 84.2874 39.303 85.4124 39.291L84.1824 41.582ZM88.9944 39.253C90.0944 39.242 91.2074 39.229 92.3264 39.217L89.8024 43.916C89.4244 43.833 89.0473 43.75 88.6573 43.664C88.1193 43.404 87.5774 43.15 87.0364 42.896L88.9944 39.253Z" fill="black"/>
<path d="M176.088 26.793C176.058 26.641 176.012 26.488 175.945 26.342L171.759 17.322C171.281 16.295 170.06 15.849 169.036 16.326C168.007 16.803 167.56 18.021 168.037 19.049L171.631 26.793H176.088Z" fill="black"/>
</svg>
